
<svg viewBox="0 0 200 200" xmlns="http://www.w3.org/2000/svg">
<defs>
 <radialGradient id="tile" cx="50%" cy="36%" r="78%"><stop offset="0" stop-color="#1b4a44"/><stop offset="1" stop-color="#0a1a19"/></radialGradient>
 <radialGradient id="dome" cx="36%" cy="26%" r="82%"><stop offset="0" stop-color="#78e2c0"/><stop offset=".42" stop-color="#36a98a"/><stop offset="1" stop-color="#1a6553"/></radialGradient>
 <linearGradient id="mint" x1="0" y1="0" x2="0" y2="1"><stop offset="0" stop-color="#bff7e6"/><stop offset="1" stop-color="#68cfb0"/></linearGradient>
 <linearGradient id="sand" x1="0" y1="0" x2="0" y2="1"><stop offset="0" stop-color="#f5e2bf"/><stop offset="1" stop-color="#cda874"/></linearGradient>
 <linearGradient id="clay" x1="0" y1="0" x2="0" y2="1"><stop offset="0" stop-color="#cfa673"/><stop offset="1" stop-color="#916a40"/></linearGradient>
 <radialGradient id="sclera" cx="42%" cy="32%" r="72%"><stop offset="0" stop-color="#ffffff"/><stop offset=".7" stop-color="#f1f7f5"/><stop offset="1" stop-color="#c9ddd8"/></radialGradient>
 <radialGradient id="iris" cx="50%" cy="50%" r="50%"><stop offset=".5" stop-color="#0d2120"/><stop offset=".85" stop-color="#1f564d"/><stop offset="1" stop-color="#2c7466"/></radialGradient>
 <clipPath id="horizon"><rect x="0" y="0" width="200" height="127"/></clipPath>
 <clipPath id="eyeclip"><circle cx="100" cy="94" r="22"/></clipPath>
</defs>
<rect width="200" height="200" fill="url(#tile)"/><g transform="translate(14 -0.5) scale(.86)">
<g clip-path="url(#horizon)">
 <g>
  <circle cx="100" cy="122" r="60" fill="url(#dome)"/>
  <ellipse cx="74" cy="84" rx="15" ry="7" fill="#ffffff" opacity=".2" transform="rotate(-34 74 84)"/>
  <g>
   <circle cx="100" cy="94" r="22" fill="url(#sclera)"/>
   <circle cx="100" cy="94" r="22" fill="none" stroke="#0c2724" stroke-opacity=".28" stroke-width="2"/>
   <g>
    <circle cx="105" cy="91" r="11.5" fill="url(#iris)"/>
    <circle cx="109" cy="86.5" r="3.6" fill="#ffffff"/>
    <circle cx="101.5" cy="95.5" r="1.5" fill="#ffffff" opacity=".75"/>
   </g>
   
  </g>
  
 </g>
</g>
<ellipse cx="100" cy="128" rx="56" ry="4.5" fill="#050f0e" opacity=".4"/>
<rect x="24" y="125" width="152" height="15" rx="7.5" fill="url(#mint)"/>
<rect x="30" y="126.5" width="140" height="3.5" rx="1.75" fill="#ffffff" opacity=".45"/>
<rect x="40" y="148" width="120" height="13" rx="6.5" fill="url(#sand)"/>
<rect x="46" y="149.5" width="108" height="3" rx="1.5" fill="#ffffff" opacity=".35"/>
<rect x="58" y="169" width="84" height="12" rx="6" fill="url(#clay)"/>
<rect x="64" y="170.5" width="72" height="2.6" rx="1.3" fill="#ffffff" opacity=".25"/>


</g></svg>
